<svg width="24" height="24" viewBox="0 0 24 24" fill="none" xmlns="http://www.w3.org/2000/svg">
<path d="M13.875 18.825C13.2569 18.9419 12.6291 19.0005 12 19C7.52203 19 3.73203 16.057 2.45703 12C2.8003 10.9081 3.32902 9.88346 4.02003 8.971M9.87803 9.879C10.4407 9.31634 11.2038 9.00025 11.9995 9.00025C12.7952 9.00025 13.5584 9.31634 14.121 9.879C14.6837 10.4417 14.9998 11.2048 14.9998 12.0005C14.9998 12.7962 14.6837 13.5593 14.121 14.122M9.87803 9.879L14.121 14.122M9.87803 9.879L14.12 14.12M14.121 14.122L17.412 17.412M9.88003 9.88L6.59003 6.59M6.59003 6.59L3.00003 3M6.59003 6.59C8.20239 5.54957 10.0811 4.9974 12 5C16.478 5 20.268 7.943 21.543 12C20.8391 14.2305 19.3774 16.1446 17.411 17.411M6.59003 6.59L17.411 17.411M17.411 17.411L21 21" stroke="#677185" strokeLinecap="round" strokeLinejoin="round"/>
<path fillRule="evenodd" clipRule="evenodd" d="M8.96298 10.8176C8.72201 10.793 8.51276 10.9919 8.49561 11.262C8.48246 11.4691 8.48312 11.6821 8.50174 11.9002C8.68013 13.9901 10.3315 15.5568 12.191 15.3981C12.385 15.3815 12.5714 15.3459 12.7503 15.296C12.9836 15.2308 13.122 14.9646 13.0593 14.7014C12.9966 14.4381 12.7567 14.2775 12.5233 14.3426C12.3876 14.3805 12.2491 14.4067 12.1074 14.4188C10.729 14.5365 9.50482 13.3752 9.37257 11.8259C9.35897 11.6665 9.35826 11.5084 9.36824 11.3512C9.38539 11.0812 9.20395 10.8423 8.96298 10.8176Z" fill="#677185"/>
</svg>
