<svg width="32" height="32" viewBox="0 0 32 32" fill="none" xmlns="http://www.w3.org/2000/svg">
<path fill-rule="evenodd" clip-rule="evenodd" d="M4.80078 6.3998C4.80078 5.51615 5.51713 4.7998 6.40078 4.7998H11.2008C12.0844 4.7998 12.8008 5.51615 12.8008 6.3998V11.1998C12.8008 12.0835 12.0844 12.7998 11.2008 12.7998H6.40078C5.51713 12.7998 4.80078 12.0835 4.80078 11.1998V6.3998ZM8.00078 9.5998V7.9998H9.60078V9.5998H8.00078Z" fill="#9CA3AF"/>
<path fill-rule="evenodd" clip-rule="evenodd" d="M4.80078 20.7998C4.80078 19.9162 5.51713 19.1998 6.40078 19.1998H11.2008C12.0844 19.1998 12.8008 19.9162 12.8008 20.7998V25.5998C12.8008 26.4835 12.0844 27.1998 11.2008 27.1998H6.40078C5.51713 27.1998 4.80078 26.4835 4.80078 25.5998V20.7998ZM8.00078 23.9998V22.3998H9.60078V23.9998H8.00078Z" fill="#9CA3AF"/>
<path fill-rule="evenodd" clip-rule="evenodd" d="M20.8008 4.7998C19.9171 4.7998 19.2008 5.51615 19.2008 6.3998V11.1998C19.2008 12.0835 19.9171 12.7998 20.8008 12.7998H25.6008C26.4844 12.7998 27.2008 12.0835 27.2008 11.1998V6.3998C27.2008 5.51615 26.4844 4.7998 25.6008 4.7998H20.8008ZM22.4008 7.9998V9.5998H24.0008V7.9998H22.4008Z" fill="#9CA3AF"/>
<path d="M17.6008 6.3998C17.6008 5.51615 16.8844 4.7998 16.0008 4.7998C15.1171 4.7998 14.4008 5.51615 14.4008 6.3998V7.9998C14.4008 8.88346 15.1171 9.5998 16.0008 9.5998C16.8844 9.5998 17.6008 8.88346 17.6008 7.9998V6.3998Z" fill="#9CA3AF"/>
<path d="M16.0008 11.1998C16.8844 11.1998 17.6008 11.9161 17.6008 12.7998V14.3998H20.8008C21.6844 14.3998 22.4008 15.1161 22.4008 15.9998C22.4008 16.8835 21.6844 17.5998 20.8008 17.5998H16.0008C15.1171 17.5998 14.4008 16.8835 14.4008 15.9998V12.7998C14.4008 11.9161 15.1171 11.1998 16.0008 11.1998Z" fill="#9CA3AF"/>
<path d="M25.6008 14.3998C24.7171 14.3998 24.0008 15.1161 24.0008 15.9998C24.0008 16.8835 24.7171 17.5998 25.6008 17.5998C26.4844 17.5998 27.2008 16.8835 27.2008 15.9998C27.2008 15.1161 26.4844 14.3998 25.6008 14.3998Z" fill="#9CA3AF"/>
<path d="M14.4008 20.7998C14.4008 19.9162 15.1171 19.1998 16.0008 19.1998H17.6008C18.4844 19.1998 19.2008 19.9162 19.2008 20.7998C19.2008 21.6835 18.4844 22.3998 17.6008 22.3998V25.5998C17.6008 26.4835 16.8844 27.1998 16.0008 27.1998C15.1171 27.1998 14.4008 26.4835 14.4008 25.5998V20.7998Z" fill="#9CA3AF"/>
<path d="M11.2008 17.5998C12.0844 17.5998 12.8008 16.8835 12.8008 15.9998C12.8008 15.1161 12.0844 14.3998 11.2008 14.3998H6.40078C5.51713 14.3998 4.80078 15.1161 4.80078 15.9998C4.80078 16.8835 5.51713 17.5998 6.40078 17.5998H11.2008Z" fill="#9CA3AF"/>
<path d="M27.2008 20.7998C27.2008 21.6835 26.4844 22.3998 25.6008 22.3998H22.4008C21.5171 22.3998 20.8008 21.6835 20.8008 20.7998C20.8008 19.9162 21.5171 19.1998 22.4008 19.1998H25.6008C26.4844 19.1998 27.2008 19.9162 27.2008 20.7998Z" fill="#9CA3AF"/>
<path d="M25.6008 27.1998C26.4844 27.1998 27.2008 26.4835 27.2008 25.5998C27.2008 24.7162 26.4844 23.9998 25.6008 23.9998H20.8008C19.9171 23.9998 19.2008 24.7162 19.2008 25.5998C19.2008 26.4835 19.9171 27.1998 20.8008 27.1998H25.6008Z" fill="#9CA3AF"/>
</svg>
